<?xml version="1.0" standalone="no"?>
<!DOCTYPE svg PUBLIC "-//W3C//DTD SVG 20010904//EN"
 "http://www.w3.org/TR/2001/REC-SVG-20010904/DTD/svg10.dtd">
<svg version="1.0" xmlns="http://www.w3.org/2000/svg"
 width="575.000000pt" height="311.000000pt" viewBox="0 0 575.000000 311.000000"
 preserveAspectRatio="xMidYMid meet">

<g transform="translate(0.000000,311.000000) scale(0.100000,-0.100000)"
fill="#B1B9C2" stroke="none">
<path d="M38 3079 c-17 -9 -18 -93 -18 -1522 0 -1164 3 -1516 12 -1525 9 -9
654 -12 2839 -12 1555 0 2834 3 2843 6 15 6 16 149 16 1523 0 1167 -3 1520
-12 1529 -16 16 -5653 17 -5680 1z m5572 -1529 l0 -1410 -2734 0 -2734 0 -1
1410 -2 1410 2736 0 2735 0 0 -1410z"/>
<path d="M1401 2515 c-249 -47 -484 -157 -613 -286 -76 -75 -85 -103 -43 -144
38 -38 56 -32 108 37 37 50 135 118 238 167 140 66 134 72 82 -76 -53 -153
-116 -365 -177 -603 -94 -362 -118 -448 -158 -575 -51 -161 -56 -199 -33 -225
21 -23 63 -26 88 -7 11 7 40 90 78 222 33 116 71 247 85 293 l25 82 82 0 c118
0 314 54 462 127 237 118 414 299 454 468 20 81 16 202 -9 268 -44 118 -124
191 -253 233 -69 23 -103 27 -212 30 -82 2 -157 -2 -204 -11z m313 -115 c114
-18 189 -72 234 -169 22 -47 24 -63 19 -127 -17 -226 -224 -422 -558 -528 -97
-31 -282 -66 -293 -55 -6 6 74 332 113 459 28 91 83 253 121 357 7 19 23 36
41 43 62 26 225 36 323 20z"/>
<path d="M2510 2477 c-91 -61 -250 -331 -339 -574 -213 -584 -219 -938 -19
-998 97 -29 210 17 334 137 l71 69 11 -43 c18 -68 48 -107 99 -130 99 -44 201
-1 334 141 l79 84 0 -44 c0 -106 52 -186 127 -196 67 -9 140 33 245 139 97 98
87 99 103 -9 8 -50 40 -102 75 -121 134 -70 372 213 599 711 36 79 39 112 11
127 -38 20 -73 8 -92 -30 -9 -19 -50 -105 -91 -190 -85 -178 -193 -347 -280
-437 -98 -103 -123 -83 -114 91 7 118 24 203 77 384 32 108 32 113 15 132 -20
23 -63 26 -88 8 -18 -14 -76 -216 -97 -338 -15 -85 -14 -83 -94 -173 -64 -72
-165 -158 -209 -178 -23 -10 -30 -10 -47 6 -17 15 -20 31 -20 102 0 120 38
264 106 404 21 44 32 78 29 90 -8 25 -48 51 -66 44 -8 -3 -22 7 -34 25 -51 76
-188 92 -295 34 -122 -66 -231 -195 -321 -379 -47 -96 -70 -131 -116 -176
-202 -196 -325 -231 -372 -106 -14 36 -14 147 -1 183 6 15 45 63 86 107 190
202 358 481 445 738 73 215 37 389 -81 389 -22 0 -51 -9 -70 -23z m75 -183
c-1 -156 -183 -535 -374 -777 -25 -33 -47 -55 -48 -50 -5 15 84 285 144 438
86 218 159 355 227 428 38 41 51 31 51 -39z m557 -664 c27 -28 30 -35 24 -73
-19 -125 -209 -403 -332 -487 -60 -42 -117 -42 -139 0 -49 95 41 323 189 479
53 55 108 95 142 104 53 13 86 7 116 -23z"/>
<path d="M4665 1818 c-56 -20 -110 -61 -196 -147 -150 -150 -229 -322 -229
-494 1 -129 28 -189 115 -246 36 -23 49 -26 135 -26 87 0 100 3 149 30 129 71
274 263 311 412 12 44 17 52 42 57 50 10 154 66 197 105 46 43 53 77 21 106
-18 17 -21 16 -68 -19 -27 -19 -73 -47 -103 -61 l-54 -25 -13 63 c-19 89 -41
136 -88 183 -62 62 -149 87 -219 62z m129 -139 c36 -29 54 -67 62 -134 l7 -56
-29 7 c-41 9 -112 41 -127 56 -48 49 -59 98 -30 130 22 25 83 24 117 -3z
m-174 -203 c47 -42 101 -71 164 -87 25 -6 46 -13 46 -15 0 -13 -75 -163 -101
-200 -114 -165 -266 -215 -343 -111 -18 24 -21 42 -20 115 1 73 6 100 33 167
33 80 72 152 118 213 l25 33 20 -40 c11 -22 37 -56 58 -75z"/>
</g>
</svg>
